<svg width="374" height="466" viewBox="0 0 374 466" fill="none" xmlns="http://www.w3.org/2000/svg">
<path fill-rule="evenodd" clip-rule="evenodd" d="M203.5 1.5H203.26L203 1V1.5H203.26L203.378 1.72745L2 378H114.5L68 464.5H127L172.5 378H372L256.5 115L139 335H79.5L229 54.5L209.5 13.5L203.378 1.72745L203.5 1.5ZM257 210.5L190.5 335H312L257 210.5Z" fill="white"/>
<path d="M203.26 1.5H203.5L203.378 1.72745M203.26 1.5L203.378 1.72745M203.26 1.5H203V1L203.26 1.5ZM203.378 1.72745L209.5 13.5L229 54.5L79.5 335H139L256.5 115L372 378H172.5L127 464.5H68L114.5 378H2L203.378 1.72745ZM190.5 335L257 210.5L312 335H190.5Z" stroke="black" stroke-width="2"/>
<path d="M203.26 1.5H203.5L203.378 1.72745M203.26 1.5L203.378 1.72745M203.26 1.5H203V1L203.26 1.5ZM203.378 1.72745L209.5 13.5L229 54.5L79.5 335H139L256.5 115L372 378H172.5L127 464.5H68L114.5 378H2L203.378 1.72745ZM190.5 335L257 210.5L312 335H190.5Z" stroke="black" stroke-width="2"/>
</svg>
